<mxfile host="Electron" modified="2024-04-18T08:44:45.395Z" agent="Mozilla/5.0 (X11; Linux x86_64) AppleWebKit/537.36 (KHTML, like Gecko) draw.io/21.6.8 Chrome/114.0.5735.289 Electron/25.5.0 Safari/537.36" etag="POidOKVopV5CPG7knsQ_" version="21.6.8" type="device" pages="2">
  <diagram name="overview" id="ciBEfEkObK3XEFT61luP">
    <mxGraphModel dx="2074" dy="2298" grid="1" gridSize="10" guides="1" tooltips="1" connect="1" arrows="1" fold="1" page="1" pageScale="1" pageWidth="850" pageHeight="1100" math="0" shadow="0">
      <root>
        <mxCell id="0" />
        <mxCell id="1" parent="0" />
        <mxCell id="aW3Xb0oR2aWTa5s_45EM-1" value="" style="rounded=1;whiteSpace=wrap;html=1;absoluteArcSize=1;arcSize=14;strokeWidth=1;strokeColor=#4D4D4D;" parent="1" vertex="1">
          <mxGeometry x="40" y="-1060" width="1050" height="530" as="geometry" />
        </mxCell>
        <mxCell id="EueIhBcCwJg_CGqTCQin-2" value="" style="rounded=1;whiteSpace=wrap;html=1;absoluteArcSize=1;arcSize=14;strokeWidth=1;strokeColor=#4D4D4D;dashed=1;" parent="1" vertex="1">
          <mxGeometry x="60" y="-1010" width="530" height="460" as="geometry" />
        </mxCell>
        <mxCell id="EueIhBcCwJg_CGqTCQin-3" value="Mobile Device" style="text;html=1;strokeColor=none;fillColor=none;align=center;verticalAlign=middle;whiteSpace=wrap;rounded=0;fontColor=#4D4D4D;fontStyle=5" parent="1" vertex="1">
          <mxGeometry x="460" y="-1000" width="120" height="30" as="geometry" />
        </mxCell>
        <mxCell id="EueIhBcCwJg_CGqTCQin-4" value="" style="rounded=1;whiteSpace=wrap;html=1;absoluteArcSize=1;arcSize=14;strokeWidth=1;strokeColor=#4D4D4D;fillColor=#E6E6E6;" parent="1" vertex="1">
          <mxGeometry x="80" y="-970" width="190" height="130" as="geometry" />
        </mxCell>
        <mxCell id="EueIhBcCwJg_CGqTCQin-5" value="Matter Commissioner&lt;br&gt;Agent App" style="text;html=1;strokeColor=none;fillColor=none;align=center;verticalAlign=middle;whiteSpace=wrap;rounded=0;fontColor=#4D4D4D;fontStyle=5" parent="1" vertex="1">
          <mxGeometry x="102.5" y="-960" width="145" height="30" as="geometry" />
        </mxCell>
        <mxCell id="EueIhBcCwJg_CGqTCQin-6" value="Device Card" style="rounded=1;whiteSpace=wrap;html=1;strokeColor=#4D4D4D;" parent="1" vertex="1">
          <mxGeometry x="115" y="-910" width="120" height="60" as="geometry" />
        </mxCell>
        <mxCell id="EueIhBcCwJg_CGqTCQin-8" style="edgeStyle=orthogonalEdgeStyle;rounded=0;orthogonalLoop=1;jettySize=auto;html=1;entryX=1;entryY=0.5;entryDx=0;entryDy=0;startArrow=classic;startFill=1;strokeColor=#4D4D4D;" parent="1" source="EueIhBcCwJg_CGqTCQin-7" target="EueIhBcCwJg_CGqTCQin-4" edge="1">
          <mxGeometry relative="1" as="geometry" />
        </mxCell>
        <mxCell id="EueIhBcCwJg_CGqTCQin-27" style="edgeStyle=orthogonalEdgeStyle;rounded=0;orthogonalLoop=1;jettySize=auto;html=1;entryX=0.5;entryY=0;entryDx=0;entryDy=0;startArrow=classic;startFill=1;" parent="1" source="EueIhBcCwJg_CGqTCQin-7" target="EueIhBcCwJg_CGqTCQin-9" edge="1">
          <mxGeometry relative="1" as="geometry" />
        </mxCell>
        <mxCell id="EueIhBcCwJg_CGqTCQin-7" value="Matter Controller&lt;br&gt;&amp;nbsp;Cloud" style="ellipse;shape=cloud;whiteSpace=wrap;html=1;fillColor=#E6E6E6;strokeColor=#4D4D4D;fontStyle=0" parent="1" vertex="1">
          <mxGeometry x="650" y="-970" width="190" height="130" as="geometry" />
        </mxCell>
        <mxCell id="EueIhBcCwJg_CGqTCQin-9" value="" style="rounded=1;whiteSpace=wrap;html=1;absoluteArcSize=1;arcSize=14;strokeWidth=1;strokeColor=#4D4D4D;fillColor=#E6E6E6;" parent="1" vertex="1">
          <mxGeometry x="650" y="-806" width="190" height="240" as="geometry" />
        </mxCell>
        <mxCell id="EueIhBcCwJg_CGqTCQin-10" value="Matter Hub &lt;br&gt;Controller&amp;nbsp;&lt;br&gt;Target Device (?)" style="text;html=1;strokeColor=none;fillColor=none;align=center;verticalAlign=middle;whiteSpace=wrap;rounded=0;fontColor=#4D4D4D;fontStyle=5" parent="1" vertex="1">
          <mxGeometry x="672.5" y="-792" width="145" height="30" as="geometry" />
        </mxCell>
        <mxCell id="EueIhBcCwJg_CGqTCQin-11" value="hub-core" style="rounded=1;whiteSpace=wrap;html=1;strokeColor=#4D4D4D;" parent="1" vertex="1">
          <mxGeometry x="685" y="-736" width="120" height="60" as="geometry" />
        </mxCell>
        <mxCell id="EueIhBcCwJg_CGqTCQin-28" style="edgeStyle=orthogonalEdgeStyle;rounded=0;orthogonalLoop=1;jettySize=auto;html=1;startArrow=classic;startFill=1;" parent="1" source="EueIhBcCwJg_CGqTCQin-12" target="EueIhBcCwJg_CGqTCQin-26" edge="1">
          <mxGeometry relative="1" as="geometry" />
        </mxCell>
        <mxCell id="EueIhBcCwJg_CGqTCQin-12" value="Matter &lt;br&gt;Controller" style="rounded=1;whiteSpace=wrap;html=1;strokeColor=#4D4D4D;" parent="1" vertex="1">
          <mxGeometry x="685" y="-656" width="120" height="60" as="geometry" />
        </mxCell>
        <mxCell id="EueIhBcCwJg_CGqTCQin-13" value="" style="rounded=1;whiteSpace=wrap;html=1;absoluteArcSize=1;arcSize=14;strokeWidth=1;strokeColor=#6c8ebf;fillColor=#dae8fc;" parent="1" vertex="1">
          <mxGeometry x="80" y="-806" width="130" height="240" as="geometry" />
        </mxCell>
        <mxCell id="EueIhBcCwJg_CGqTCQin-32" style="edgeStyle=orthogonalEdgeStyle;rounded=0;orthogonalLoop=1;jettySize=auto;html=1;entryX=0;entryY=0.5;entryDx=0;entryDy=0;startArrow=classic;startFill=1;" parent="1" source="EueIhBcCwJg_CGqTCQin-14" target="EueIhBcCwJg_CGqTCQin-17" edge="1">
          <mxGeometry relative="1" as="geometry" />
        </mxCell>
        <mxCell id="EueIhBcCwJg_CGqTCQin-14" value="" style="rounded=1;whiteSpace=wrap;html=1;absoluteArcSize=1;arcSize=14;strokeWidth=1;strokeColor=#d6b656;fillColor=#fff2cc;" parent="1" vertex="1">
          <mxGeometry x="210" y="-806" width="60" height="240" as="geometry" />
        </mxCell>
        <mxCell id="EueIhBcCwJg_CGqTCQin-15" value="3rd Party App" style="text;html=1;strokeColor=none;fillColor=none;align=center;verticalAlign=middle;whiteSpace=wrap;rounded=0;fontColor=#4D4D4D;fontStyle=5" parent="1" vertex="1">
          <mxGeometry x="72.5" y="-701" width="145" height="30" as="geometry" />
        </mxCell>
        <mxCell id="EueIhBcCwJg_CGqTCQin-16" value="TARGET API" style="text;html=1;strokeColor=none;fillColor=none;align=center;verticalAlign=middle;whiteSpace=wrap;rounded=0;fontColor=#4D4D4D;fontStyle=1;rotation=-90;" parent="1" vertex="1">
          <mxGeometry x="129.38" y="-700.63" width="221.25" height="30" as="geometry" />
        </mxCell>
        <mxCell id="EueIhBcCwJg_CGqTCQin-17" value="" style="rounded=1;whiteSpace=wrap;html=1;absoluteArcSize=1;arcSize=14;strokeWidth=1;strokeColor=#b85450;fillColor=#f8cecc;" parent="1" vertex="1">
          <mxGeometry x="320" y="-806" width="240" height="240" as="geometry" />
        </mxCell>
        <mxCell id="EueIhBcCwJg_CGqTCQin-18" value="TARGET Service" style="text;html=1;strokeColor=none;fillColor=none;align=center;verticalAlign=middle;whiteSpace=wrap;rounded=0;fontColor=#4D4D4D;fontStyle=5" parent="1" vertex="1">
          <mxGeometry x="367.5" y="-795" width="145" height="30" as="geometry" />
        </mxCell>
        <mxCell id="EueIhBcCwJg_CGqTCQin-20" value="Authentication" style="rounded=1;whiteSpace=wrap;html=1;strokeColor=#d79b00;fillColor=#ffe6cc;" parent="1" vertex="1">
          <mxGeometry x="340" y="-750" width="90" height="60" as="geometry" />
        </mxCell>
        <mxCell id="EueIhBcCwJg_CGqTCQin-29" style="edgeStyle=orthogonalEdgeStyle;rounded=0;orthogonalLoop=1;jettySize=auto;html=1;startArrow=classic;startFill=1;" parent="1" source="EueIhBcCwJg_CGqTCQin-21" target="EueIhBcCwJg_CGqTCQin-23" edge="1">
          <mxGeometry relative="1" as="geometry" />
        </mxCell>
        <mxCell id="EueIhBcCwJg_CGqTCQin-30" style="edgeStyle=orthogonalEdgeStyle;rounded=0;orthogonalLoop=1;jettySize=auto;html=1;entryX=0;entryY=0.5;entryDx=0;entryDy=0;startArrow=classic;startFill=1;" parent="1" source="EueIhBcCwJg_CGqTCQin-21" target="EueIhBcCwJg_CGqTCQin-11" edge="1">
          <mxGeometry relative="1" as="geometry">
            <Array as="points">
              <mxPoint x="570" y="-706" />
              <mxPoint x="570" y="-706" />
            </Array>
          </mxGeometry>
        </mxCell>
        <mxCell id="EueIhBcCwJg_CGqTCQin-31" style="edgeStyle=orthogonalEdgeStyle;rounded=0;orthogonalLoop=1;jettySize=auto;html=1;entryX=0.182;entryY=0.791;entryDx=0;entryDy=0;entryPerimeter=0;startArrow=classic;startFill=1;" parent="1" source="EueIhBcCwJg_CGqTCQin-21" target="EueIhBcCwJg_CGqTCQin-7" edge="1">
          <mxGeometry relative="1" as="geometry">
            <Array as="points">
              <mxPoint x="610" y="-720" />
              <mxPoint x="610" y="-867" />
            </Array>
          </mxGeometry>
        </mxCell>
        <mxCell id="EueIhBcCwJg_CGqTCQin-21" value="Controller" style="rounded=1;whiteSpace=wrap;html=1;strokeColor=#d79b00;fillColor=#ffe6cc;" parent="1" vertex="1">
          <mxGeometry x="450" y="-750" width="90" height="60" as="geometry" />
        </mxCell>
        <mxCell id="EueIhBcCwJg_CGqTCQin-22" value="Commissioner" style="rounded=1;whiteSpace=wrap;html=1;strokeColor=#d79b00;fillColor=#ffe6cc;" parent="1" vertex="1">
          <mxGeometry x="340" y="-670.63" width="90" height="60" as="geometry" />
        </mxCell>
        <mxCell id="EueIhBcCwJg_CGqTCQin-23" value="Location / Room / &lt;br&gt;Device" style="rounded=1;whiteSpace=wrap;html=1;strokeColor=#d79b00;fillColor=#ffe6cc;" parent="1" vertex="1">
          <mxGeometry x="450" y="-670.63" width="90" height="60" as="geometry" />
        </mxCell>
        <mxCell id="EueIhBcCwJg_CGqTCQin-24" value="" style="rounded=1;whiteSpace=wrap;html=1;absoluteArcSize=1;arcSize=14;strokeWidth=1;strokeColor=#6c8ebf;fillColor=#dae8fc;" parent="1" vertex="1">
          <mxGeometry x="930" y="-805.63" width="150" height="240" as="geometry" />
        </mxCell>
        <mxCell id="EueIhBcCwJg_CGqTCQin-25" value="3rd Party Matter Device" style="text;html=1;strokeColor=none;fillColor=none;align=center;verticalAlign=middle;whiteSpace=wrap;rounded=0;fontColor=#4D4D4D;fontStyle=5" parent="1" vertex="1">
          <mxGeometry x="932.5" y="-795" width="145" height="30" as="geometry" />
        </mxCell>
        <mxCell id="EueIhBcCwJg_CGqTCQin-26" value="Matter Hub&amp;nbsp; Controller&amp;nbsp;&lt;br&gt;Matter SDK" style="rounded=1;whiteSpace=wrap;html=1;strokeColor=#d6b656;fillColor=#fff2cc;" parent="1" vertex="1">
          <mxGeometry x="945" y="-656" width="120" height="60" as="geometry" />
        </mxCell>
        <mxCell id="EueIhBcCwJg_CGqTCQin-33" value="IPC" style="text;html=1;strokeColor=none;fillColor=none;align=center;verticalAlign=middle;whiteSpace=wrap;rounded=0;" parent="1" vertex="1">
          <mxGeometry x="265" y="-710" width="60" height="30" as="geometry" />
        </mxCell>
        <mxCell id="EueIhBcCwJg_CGqTCQin-34" value="OVERVIEW" style="text;html=1;strokeColor=none;fillColor=none;align=center;verticalAlign=middle;whiteSpace=wrap;rounded=0;fontStyle=1;fontSize=20;" parent="1" vertex="1">
          <mxGeometry x="880" y="-1090" width="270" height="100" as="geometry" />
        </mxCell>
      </root>
    </mxGraphModel>
  </diagram>
  <diagram id="QEgzx3YlyH_pQ4erCCbN" name="matter_virtual_device">
    <mxGraphModel dx="2074" dy="1198" grid="1" gridSize="10" guides="1" tooltips="1" connect="1" arrows="1" fold="1" page="1" pageScale="1" pageWidth="850" pageHeight="1100" math="0" shadow="0">
      <root>
        <mxCell id="0" />
        <mxCell id="1" parent="0" />
        <mxCell id="EZc0QDiE48_I5X3gda8w-1" value="Matter_Virtual_device" style="rounded=1;whiteSpace=wrap;html=1;" vertex="1" parent="1">
          <mxGeometry x="130" y="250" width="170" height="70" as="geometry" />
        </mxCell>
        <mxCell id="EZc0QDiE48_I5X3gda8w-2" value="Chip Tool" style="rounded=1;whiteSpace=wrap;html=1;" vertex="1" parent="1">
          <mxGeometry x="590" y="250" width="120" height="60" as="geometry" />
        </mxCell>
        <mxCell id="EZc0QDiE48_I5X3gda8w-3" value="Sample Code" style="text;html=1;strokeColor=none;fillColor=none;align=center;verticalAlign=middle;whiteSpace=wrap;rounded=0;fontStyle=1" vertex="1" parent="1">
          <mxGeometry x="40" y="70" width="160" height="30" as="geometry" />
        </mxCell>
      </root>
    </mxGraphModel>
  </diagram>
</mxfile>
